<svg xmlns="http://www.w3.org/2000/svg" width="12" height="8" viewBox="0 0 12 8" fill="none">
<path d="M6.04834 0.192383C6.19222 0.192383 6.32503 0.220052 6.44678 0.275391C6.56852 0.325195 6.6875 0.408203 6.80371 0.524414L11.7261 5.50488C11.9087 5.68197 12 5.90332 12 6.16895C12 6.4401 11.9087 6.66976 11.7261 6.85791C11.5379 7.04053 11.311 7.13184 11.0454 7.13184C10.7798 7.13184 10.5446 7.03223 10.3398 6.83301L6.04834 2.4751L1.75684 6.83301C1.55208 7.03223 1.31689 7.13184 1.05127 7.13184C0.785645 7.13184 0.561523 7.04053 0.378906 6.85791C0.190755 6.66976 0.0966797 6.4401 0.0966797 6.16895C0.0966797 5.90332 0.187988 5.68197 0.370605 5.50488L5.29297 0.524414C5.50879 0.30306 5.76058 0.192383 6.04834 0.192383Z" fill="#3C3C43" fill-opacity="0.3"/>
</svg>