<svg xmlns="http://www.w3.org/2000/svg" width="27" height="28" viewBox="0 0 27 28" fill="none">
  <path d="M9.16667 16.6667C9.55556 17.4444 10.9667 19 13.5 19C16.0333 19 17.4444 17.4444 17.8333 16.6667M24 14C24 19.799 19.299 24.5 13.5 24.5C7.70101 24.5 3 19.799 3 14C3 8.20101 7.70101 3.5 13.5 3.5C19.299 3.5 24 8.20101 24 14ZM17.5 12.1667C17.5 12.6269 17.2761 13 17 13C16.7239 13 16.5 12.6269 16.5 12.1667C16.5 11.7064 16.7239 11.3333 17 11.3333C17.2761 11.3333 17.5 11.7064 17.5 12.1667ZM10.5 12.1667C10.5 12.6269 10.2761 13 10 13C9.72386 13 9.5 12.6269 9.5 12.1667C9.5 11.7064 9.72386 11.3333 10 11.3333C10.2761 11.3333 10.5 11.7064 10.5 12.1667Z" stroke="#8E959B" stroke-width="1.5" stroke-linecap="round"/>
</svg>