<svg width="26" height="24" viewBox="0 0 26 24" fill="none" xmlns="http://www.w3.org/2000/svg">
<path d="M7.11485 15.5362L7.83322 15.7517C7.89946 15.5309 7.86047 15.2919 7.72746 15.1035L7.11485 15.5362ZM6.19952 18.5873L5.48115 18.3718C5.40617 18.6217 5.46649 18.8927 5.64044 19.0872C5.81438 19.2817 6.07694 19.3719 6.33369 19.3252L6.19952 18.5873ZM9.94095 17.907L10.26 17.2283C10.1187 17.1619 9.96033 17.1412 9.80679 17.1691L9.94095 17.907ZM19.4498 11.3874C19.4498 14.9496 16.5621 17.8373 12.9999 17.8373V19.3373C17.3906 19.3373 20.9498 15.778 20.9498 11.3874H19.4498ZM12.9999 4.9375C16.5621 4.9375 19.4498 7.82522 19.4498 11.3874H20.9498C20.9498 6.99679 17.3906 3.4375 12.9999 3.4375V4.9375ZM6.55005 11.3874C6.55005 7.82522 9.43777 4.9375 12.9999 4.9375V3.4375C8.60934 3.4375 5.05005 6.99679 5.05005 11.3874H6.55005ZM7.72746 15.1035C6.98569 14.0533 6.55005 12.7723 6.55005 11.3874H5.05005C5.05005 13.0922 5.58753 14.6737 6.50223 15.9689L7.72746 15.1035ZM6.91789 18.8028L7.83322 15.7517L6.39648 15.3207L5.48115 18.3718L6.91789 18.8028ZM9.80679 17.1691L6.06536 17.8494L6.33369 19.3252L10.0751 18.6449L9.80679 17.1691ZM12.9999 17.8373C12.0187 17.8373 11.0907 17.6187 10.26 17.2283L9.62193 18.5858C10.6481 19.0681 11.7936 19.3373 12.9999 19.3373V17.8373Z" fill="#494E55"/>
<path d="M12.9999 21.5799C18.567 21.5799 23.0799 17.067 23.0799 11.4999C23.0799 5.93289 18.567 1.41992 12.9999 1.41992C7.43289 1.41992 2.91992 5.93289 2.91992 11.4999C2.91992 13.0563 3.27267 14.5303 3.90257 15.8464" stroke="#494E55" stroke-width="1.5" stroke-linecap="round" stroke-linejoin="round"/>
<circle cx="10.0993" cy="11.4887" r="1.09998" fill="#494E55"/>
<circle cx="13.3993" cy="11.4887" r="1.09998" fill="#494E55"/>
<circle cx="16.6993" cy="11.4887" r="1.09998" fill="#494E55"/>
<path d="M22.3601 7.17969H23.2401C24.3447 7.17969 25.2401 8.07512 25.2401 9.17969V13.8197C25.2401 14.9243 24.3447 15.8197 23.2401 15.8197H22.3601" stroke="#494E55" stroke-width="1.5" stroke-linecap="round" stroke-linejoin="round"/>
<path d="M3.63989 15.8203L2.75989 15.8203C1.65532 15.8203 0.759892 14.9249 0.759892 13.8203L0.759893 9.18031C0.759893 8.07574 1.65532 7.18031 2.75989 7.18031L3.63989 7.18031" stroke="#494E55" stroke-width="1.5" stroke-linecap="round" stroke-linejoin="round"/>
<path d="M12.2499 21.2199C12.2499 21.7998 11.7798 22.2699 11.1999 22.2699C10.62 22.2699 10.1499 21.7998 10.1499 21.2199C10.1499 20.64 10.62 20.1699 11.1999 20.1699C11.7798 20.1699 12.2499 20.64 12.2499 21.2199Z" stroke="#494E55" stroke-width="1.5"/>
</svg>
