<svg width="27" height="18" viewBox="0 0 27 18" fill="none" xmlns="http://www.w3.org/2000/svg">
<path d="M7.31421 5.57715L7.76126 3.28723L1.24544 2.01518C0.966031 3.44638 1.81018 4.50263 2.63225 4.66312L7.31421 5.57715Z" fill="url(#paint0_linear_2243_26613)"/>
<path d="M7.24658 5.62402L7.69363 3.33411L1.34417 2.09454C1.06476 3.52573 1.90891 4.58198 2.73099 4.74247L7.24658 5.62402Z" stroke="url(#paint1_linear_2243_26613)" stroke-width="0.129619"/>
<path d="M7.35693 7.71777L7.80398 5.42786L2.39724 4.37233C2.11783 5.80353 2.96198 6.85977 3.78405 7.02026L7.35693 7.71777Z" fill="url(#paint2_linear_2243_26613)"/>
<path d="M7.35693 7.71777L7.80398 5.42786L2.39724 4.37233C2.11783 5.80353 2.96198 6.85977 3.78406 7.02026L7.35693 7.71777Z" stroke="url(#paint3_linear_2243_26613)" stroke-width="0.129619"/>
<path d="M8.86792 10.126L9.31497 7.83606L3.90822 6.78053C3.62882 8.21173 4.47296 9.26797 5.29504 9.42846L8.86792 10.126Z" fill="url(#paint4_linear_2243_26613)"/>
<path d="M8.86792 10.126L9.31497 7.83606L3.90822 6.78053C3.62882 8.21173 4.47296 9.26797 5.29504 9.42846L8.86792 10.126Z" stroke="url(#paint5_linear_2243_26613)" stroke-width="0.129619"/>
<path d="M18.9114 5.65234L18.4643 3.36243L24.9802 2.09038C25.2596 3.52158 24.4154 4.57782 23.5933 4.73831L18.9114 5.65234Z" fill="url(#paint6_linear_2243_26613)"/>
<path d="M18.978 5.69727L18.531 3.40735L24.8804 2.16778C25.1598 3.59898 24.3157 4.65522 23.4936 4.81571L18.978 5.69727Z" stroke="url(#paint7_linear_2243_26613)" stroke-width="0.129619"/>
<path d="M18.8684 7.79102L18.4214 5.5011L23.8281 4.44557C24.1075 5.87677 23.2634 6.93301 22.4413 7.0935L18.8684 7.79102Z" fill="url(#paint8_linear_2243_26613)"/>
<path d="M18.8684 7.79102L18.4214 5.5011L23.8281 4.44557C24.1075 5.87677 23.2634 6.93301 22.4413 7.0935L18.8684 7.79102Z" stroke="url(#paint9_linear_2243_26613)" stroke-width="0.129619"/>
<path d="M17.3574 10.1982L16.9104 7.90833L22.3171 6.8528C22.5965 8.28399 21.7524 9.34024 20.9303 9.50073L17.3574 10.1982Z" fill="url(#paint10_linear_2243_26613)"/>
<path d="M17.3574 10.1982L16.9104 7.90833L22.3171 6.8528C22.5965 8.28399 21.7524 9.34024 20.9303 9.50073L17.3574 10.1982Z" stroke="url(#paint11_linear_2243_26613)" stroke-width="0.129619"/>
<g filter="url(#filter0_d_2243_26613)">
<path d="M12.659 0.249686L6.55694 3.56915C6.24784 3.7373 6.05542 4.06101 6.05542 4.4129V12.0008C6.05542 12.3527 6.24784 12.6764 6.55694 12.8446L12.659 16.164C12.9452 16.3197 13.2908 16.3197 13.577 16.164L19.6791 12.8446C19.9882 12.6764 20.1806 12.3527 20.1806 12.0008L20.1806 4.4129C20.1806 4.06101 19.9882 3.7373 19.6791 3.56915L13.577 0.249686C13.2908 0.0940009 12.9452 0.0940009 12.659 0.249686Z" fill="url(#paint12_linear_2243_26613)"/>
<path d="M12.6522 1.49191L7.62854 4.22475C7.3206 4.39227 7.12891 4.71477 7.12891 5.06533V11.3202C7.12891 11.6707 7.3206 11.9932 7.62854 12.1607L12.6522 14.8936C12.9374 15.0487 13.2817 15.0487 13.5668 14.8936L18.5905 12.1607C18.8984 11.9932 19.0901 11.6707 19.0901 11.3202L19.0901 5.06533C19.0901 4.71477 18.8984 4.39227 18.5905 4.22475L13.5668 1.49191C13.2817 1.33681 12.9374 1.33681 12.6522 1.49191Z" fill="url(#paint13_linear_2243_26613)"/>
<g filter="url(#filter1_f_2243_26613)">
<path d="M12.6522 1.49191L7.62854 4.22475C7.3206 4.39227 7.12891 4.71477 7.12891 5.06533V11.3202C7.12891 11.6707 7.3206 11.9932 7.62854 12.1607L12.6522 14.8936C12.9374 15.0487 13.2817 15.0487 13.5668 14.8936L18.5905 12.1607C18.8984 11.9932 19.0901 11.6707 19.0901 11.3202L19.0901 5.06533C19.0901 4.71477 18.8984 4.39227 18.5905 4.22475L13.5668 1.49191C13.2817 1.33681 12.9374 1.33681 12.6522 1.49191Z" stroke="url(#paint14_linear_2243_26613)" stroke-width="0.0565007"/>
</g>
<g opacity="0.5">
<mask id="mask0_2243_26613" style="mask-type:alpha" maskUnits="userSpaceOnUse" x="7" y="1" width="12" height="14">
<path d="M12.7119 2.04385L8.11326 4.54319C7.82017 4.70249 7.6377 5.00934 7.6377 5.34292V11.0635C7.6377 11.3971 7.82017 11.7039 8.11326 11.8632L12.7119 14.3626C12.9829 14.5099 13.3101 14.5099 13.5812 14.3626L18.1798 11.8632C18.4728 11.7039 18.6553 11.3971 18.6553 11.0635L18.6553 5.34292C18.6553 5.00934 18.4729 4.70249 18.1798 4.54319L13.5812 2.04385C13.3101 1.89654 12.9829 1.89654 12.7119 2.04385Z" fill="#A6D3DE"/>
</mask>
<g mask="url(#mask0_2243_26613)">
<path d="M12.7119 2.04385L8.11326 4.54319C7.82017 4.70249 7.6377 5.00934 7.6377 5.34292V11.0635C7.6377 11.3971 7.82017 11.7039 8.11326 11.8632L12.7119 14.3626C12.9829 14.5099 13.3101 14.5099 13.5812 14.3626L18.1798 11.8632C18.4728 11.7039 18.6553 11.3971 18.6553 11.0635L18.6553 5.34292C18.6553 5.00934 18.4729 4.70249 18.1798 4.54319L13.5812 2.04385C13.3101 1.89654 12.9829 1.89654 12.7119 2.04385Z" fill="url(#paint15_radial_2243_26613)"/>
<path opacity="0.5" d="M12.2254 14.8518L12.0066 1.55469H14.2861L14.0673 14.8518H12.2254Z" fill="url(#paint16_linear_2243_26613)"/>
<path opacity="0.5" d="M12.1962 14.7334L5.35815 3.32715L7.33227 2.18739L13.7913 13.8125L12.1962 14.7334Z" fill="url(#paint17_linear_2243_26613)"/>
<path opacity="0.5" d="M12.0063 13.8126L18.4653 2.1875L20.4394 3.32725L13.6014 14.7335L12.0063 13.8126Z" fill="url(#paint18_linear_2243_26613)"/>
<rect x="7.6377" y="7.44336" width="11.0176" height="7.15513" fill="url(#paint19_linear_2243_26613)"/>
<g filter="url(#filter2_i_2243_26613)">
<path d="M12.7119 2.04385L8.11326 4.54319C7.82017 4.70249 7.6377 5.00934 7.6377 5.34292V11.0635C7.6377 11.3971 7.82017 11.7039 8.11326 11.8632L12.7119 14.3626C12.9829 14.5099 13.3101 14.5099 13.5812 14.3626L18.1798 11.8632C18.4728 11.7039 18.6553 11.3971 18.6553 11.0635L18.6553 5.34292C18.6553 5.00934 18.4729 4.70249 18.1798 4.54319L13.5812 2.04385C13.3101 1.89654 12.9829 1.89654 12.7119 2.04385Z" fill="#6052B4" fill-opacity="0.01"/>
</g>
</g>
</g>
</g>
<g filter="url(#filter3_d_2243_26613)">
<g clip-path="url(#clip0_2243_26613)">
<path d="M12.9778 4.22656L15.6832 5.34579L16.8037 8.04785L15.6832 10.7499L12.9778 11.8691L10.2724 10.7499L9.15186 8.04785L10.2724 5.34579L12.9778 4.22656Z" fill="url(#paint20_linear_2243_26613)" fill-opacity="0.8"/>
<path d="M12.9854 8.08049L10.27 5.36508L11.8814 5.40984L12.9854 4.24609V8.08049Z" fill="url(#paint21_linear_2243_26613)" fill-opacity="0.6"/>
<path d="M12.9854 8.08049L10.27 5.36508L11.8814 5.40984L12.9854 4.24609V8.08049Z" fill="white" fill-opacity="0.2"/>
<path d="M12.9886 8.08128L9.14842 8.08128L10.3195 6.97354L10.2773 5.36996L12.9886 8.08128Z" fill="url(#paint22_linear_2243_26613)"/>
<path d="M12.9886 8.08128L9.14842 8.08128L10.3195 6.97354L10.2773 5.36996L12.9886 8.08128Z" fill="url(#paint23_linear_2243_26613)"/>
<path d="M12.9886 8.08128L9.14842 8.08128L10.3195 6.97354L10.2773 5.36996L12.9886 8.08128Z" fill="white" fill-opacity="0.2"/>
<path d="M12.9855 8.08049L15.7009 5.36508L14.0896 5.40984L12.9855 4.24609V8.08049Z" fill="url(#paint24_linear_2243_26613)"/>
<path d="M12.9855 8.08049L15.7009 5.36508L14.0896 5.40984L12.9855 4.24609V8.08049Z" fill="white" fill-opacity="0.2"/>
<path d="M12.9824 8.08128L16.8225 8.08128L15.6515 6.97354L15.6937 5.36996L12.9824 8.08128Z" fill="url(#paint25_linear_2243_26613)"/>
<path d="M12.9824 8.08128L16.8225 8.08128L15.6515 6.97354L15.6937 5.36996L12.9824 8.08128Z" fill="white" fill-opacity="0.2"/>
<path d="M12.9887 8.08065L15.7041 10.7961L14.0928 10.7513L12.9887 11.915V8.08065Z" fill="url(#paint26_linear_2243_26613)"/>
<path d="M12.9853 8.07985L16.8255 8.07985L15.6544 9.18759L15.6966 10.7912L12.9853 8.07985Z" fill="url(#paint27_linear_2243_26613)"/>
<path d="M12.9888 8.08065L10.2734 10.7961L11.8848 10.7513L12.9888 11.915V8.08065Z" fill="url(#paint28_linear_2243_26613)"/>
<path d="M12.9888 8.08065L10.2734 10.7961L11.8848 10.7513L12.9888 11.915V8.08065Z" fill="white" fill-opacity="0.2"/>
<path d="M12.9918 8.07985L9.15159 8.07985L10.3226 9.18759L10.2804 10.7912L12.9918 8.07985Z" fill="url(#paint29_linear_2243_26613)"/>
<path d="M12.9918 8.07985L9.15159 8.07985L10.3226 9.18759L10.2804 10.7912L12.9918 8.07985Z" fill="url(#paint30_linear_2243_26613)"/>
<path d="M12.9918 8.07985L9.15159 8.07985L10.3226 9.18759L10.2804 10.7912L12.9918 8.07985Z" fill="white" fill-opacity="0.2"/>
<g opacity="0.5">
<path d="M12.9778 6.11523L14.3463 6.68138L14.9131 8.04818L14.3463 9.41498L12.9778 9.98113L11.6093 9.41498L11.0425 8.04818L11.6093 6.68138L12.9778 6.11523Z" fill="url(#paint31_linear_2243_26613)" style="mix-blend-mode:hard-light"/>
</g>
<g style="mix-blend-mode:lighten">
<path d="M12.9778 6.11529L11.8761 5.38672L11.6082 6.68031L10.313 6.94794L11.0424 8.04824L10.313 9.1634L11.6082 9.41617L11.8761 10.7246L12.9778 9.98118L14.0794 10.7246L14.3474 9.41617L15.6574 9.14853L14.9131 8.04824L15.6276 6.94794L14.3474 6.68031L14.0794 5.40159L12.9778 6.11529Z" fill="url(#paint32_linear_2243_26613)" style="mix-blend-mode:hard-light"/>
</g>
<g opacity="0.6">
<path d="M12.2929 7.09668L12.3875 7.1361L12.4823 7.17507L12.5214 7.26979L12.5608 7.36432L12.5214 7.45885L12.4823 7.55357L12.3875 7.59254L12.2929 7.63196L12.1982 7.59254L12.1034 7.55357L12.0644 7.45885L12.0249 7.36432L12.0644 7.26979L12.1034 7.17507L12.1982 7.1361L12.2929 7.09668Z" fill="white" fill-opacity="0.4" style="mix-blend-mode:hard-light"/>
</g>
<g opacity="0.2">
<path d="M11.6918 5.74316L12.0283 5.88552L12.3655 6.02624L12.5042 6.36828L12.6445 6.70964L12.5042 7.051L12.3655 7.39304L12.0283 7.53376L11.6918 7.67611L11.3553 7.53376L11.0181 7.39304L10.8793 7.051L10.739 6.70964L10.8793 6.36828L11.0181 6.02624L11.3553 5.88552L11.6918 5.74316Z" fill="white" fill-opacity="0.89" style="mix-blend-mode:hard-light"/>
</g>
<g opacity="0.4">
<path d="M12.5014 7.42383L12.554 7.44573L12.6067 7.46738L12.6284 7.52L12.6503 7.57252L12.6284 7.62503L12.6067 7.67766L12.554 7.6993L12.5014 7.72121L12.4488 7.6993L12.3961 7.67766L12.3745 7.62503L12.3525 7.57252L12.3745 7.52L12.3961 7.46738L12.4488 7.44573L12.5014 7.42383Z" fill="white" fill-opacity="0.87" style="mix-blend-mode:hard-light"/>
</g>
</g>
</g>
<defs>
<filter id="filter0_d_2243_26613" x="5.71642" y="0.132812" width="14.8033" height="16.9394" filterUnits="userSpaceOnUse" color-interpolation-filters="sRGB">
<feFlood flood-opacity="0" result="BackgroundImageFix"/>
<feColorMatrix in="SourceAlpha" type="matrix" values="0 0 0 0 0 0 0 0 0 0 0 0 0 0 0 0 0 0 127 0" result="hardAlpha"/>
<feOffset dy="0.452005"/>
<feGaussianBlur stdDeviation="0.169502"/>
<feColorMatrix type="matrix" values="0 0 0 0 0.4375 0 0 0 0 0.287401 0 0 0 0 0.111198 0 0 0 0.6 0"/>
<feBlend mode="normal" in2="BackgroundImageFix" result="effect1_dropShadow_2243_26613"/>
<feBlend mode="normal" in="SourceGraphic" in2="effect1_dropShadow_2243_26613" result="shape"/>
</filter>
<filter id="filter1_f_2243_26613" x="7.08364" y="1.33071" width="12.0517" height="13.7243" filterUnits="userSpaceOnUse" color-interpolation-filters="sRGB">
<feFlood flood-opacity="0" result="BackgroundImageFix"/>
<feBlend mode="normal" in="SourceGraphic" in2="BackgroundImageFix" result="shape"/>
<feGaussianBlur stdDeviation="0.0084751" result="effect1_foregroundBlur_2243_26613"/>
</filter>
<filter id="filter2_i_2243_26613" x="7.6377" y="1.93359" width="11.0176" height="12.5391" filterUnits="userSpaceOnUse" color-interpolation-filters="sRGB">
<feFlood flood-opacity="0" result="BackgroundImageFix"/>
<feBlend mode="normal" in="SourceGraphic" in2="BackgroundImageFix" result="shape"/>
<feColorMatrix in="SourceAlpha" type="matrix" values="0 0 0 0 0 0 0 0 0 0 0 0 0 0 0 0 0 0 127 0" result="hardAlpha"/>
<feOffset/>
<feGaussianBlur stdDeviation="0.379918"/>
<feComposite in2="hardAlpha" operator="arithmetic" k2="-1" k3="1"/>
<feColorMatrix type="matrix" values="0 0 0 0 0.458333 0 0 0 0 0.256743 0 0 0 0 0.0706597 0 0 0 1 0"/>
<feBlend mode="normal" in2="shape" result="effect1_innerShadow_2243_26613"/>
</filter>
<filter id="filter3_d_2243_26613" x="8.09262" y="4.22656" width="10.0399" height="8.3885" filterUnits="userSpaceOnUse" color-interpolation-filters="sRGB">
<feFlood flood-opacity="0" result="BackgroundImageFix"/>
<feColorMatrix in="SourceAlpha" type="matrix" values="0 0 0 0 0 0 0 0 0 0 0 0 0 0 0 0 0 0 127 0" result="hardAlpha"/>
<feOffset dy="0.264562"/>
<feGaussianBlur stdDeviation="0.132281"/>
<feColorMatrix type="matrix" values="0 0 0 0 0.795833 0 0 0 0 0.632621 0 0 0 0 0.441024 0 0 0 0.47 0"/>
<feBlend mode="normal" in2="BackgroundImageFix" result="effect1_dropShadow_2243_26613"/>
<feBlend mode="normal" in="SourceGraphic" in2="effect1_dropShadow_2243_26613" result="shape"/>
</filter>
<linearGradient id="paint0_linear_2243_26613" x1="4.10604" y1="4.95084" x2="2.54473" y2="2.63202" gradientUnits="userSpaceOnUse">
<stop stop-color="#D2A86B"/>
<stop offset="0.875" stop-color="#FFF5DE"/>
</linearGradient>
<linearGradient id="paint1_linear_2243_26613" x1="1.66221" y1="2.15663" x2="3.05982" y2="4.80667" gradientUnits="userSpaceOnUse">
<stop stop-color="#FFF5DE"/>
<stop offset="0.378992" stop-color="#F5E3C4"/>
<stop offset="0.480868" stop-color="#E6CA9E"/>
<stop offset="0.729174" stop-color="#D2A86B"/>
</linearGradient>
<linearGradient id="paint2_linear_2243_26613" x1="5.25784" y1="7.30798" x2="3.69653" y2="4.98916" gradientUnits="userSpaceOnUse">
<stop stop-color="#E0C08E"/>
<stop offset="0.875" stop-color="#FFF5DE"/>
</linearGradient>
<linearGradient id="paint3_linear_2243_26613" x1="2.71528" y1="4.43442" x2="5.85768" y2="8.16492" gradientUnits="userSpaceOnUse">
<stop stop-color="#FFF5DE"/>
<stop offset="0.378992" stop-color="#FFF5DE"/>
<stop offset="0.480868" stop-color="#EAD2A9"/>
<stop offset="0.729174" stop-color="#D2A86B"/>
</linearGradient>
<linearGradient id="paint4_linear_2243_26613" x1="6.76883" y1="9.71618" x2="5.20751" y2="7.39737" gradientUnits="userSpaceOnUse">
<stop stop-color="#E0C08E"/>
<stop offset="0.875" stop-color="#FFF5DE"/>
</linearGradient>
<linearGradient id="paint5_linear_2243_26613" x1="4.22627" y1="6.84262" x2="7.36867" y2="10.5731" gradientUnits="userSpaceOnUse">
<stop stop-color="#FFF5DE"/>
<stop offset="0.378992" stop-color="#FFF5DE"/>
<stop offset="0.480868" stop-color="#EAD2A9"/>
<stop offset="0.729174" stop-color="#D2A86B"/>
</linearGradient>
<linearGradient id="paint6_linear_2243_26613" x1="22.1195" y1="5.02603" x2="23.6809" y2="2.70722" gradientUnits="userSpaceOnUse">
<stop stop-color="#D2A86B"/>
<stop offset="0.875" stop-color="#FFF5DE"/>
</linearGradient>
<linearGradient id="paint7_linear_2243_26613" x1="24.5624" y1="2.22987" x2="23.1648" y2="4.87991" gradientUnits="userSpaceOnUse">
<stop stop-color="#FFF5DE"/>
<stop offset="0.378992" stop-color="#F5E3C4"/>
<stop offset="0.480868" stop-color="#E6CA9E"/>
<stop offset="0.729174" stop-color="#D2A86B"/>
</linearGradient>
<linearGradient id="paint8_linear_2243_26613" x1="20.9675" y1="7.38122" x2="22.5288" y2="5.06241" gradientUnits="userSpaceOnUse">
<stop stop-color="#E0C08E"/>
<stop offset="0.875" stop-color="#FFF5DE"/>
</linearGradient>
<linearGradient id="paint9_linear_2243_26613" x1="23.5101" y1="4.50766" x2="20.3677" y2="8.23817" gradientUnits="userSpaceOnUse">
<stop stop-color="#FFF5DE"/>
<stop offset="0.378992" stop-color="#FFF5DE"/>
<stop offset="0.480868" stop-color="#EAD2A9"/>
<stop offset="0.729174" stop-color="#D2A86B"/>
</linearGradient>
<linearGradient id="paint10_linear_2243_26613" x1="19.4565" y1="9.78845" x2="21.0178" y2="7.46963" gradientUnits="userSpaceOnUse">
<stop stop-color="#E0C08E"/>
<stop offset="0.875" stop-color="#FFF5DE"/>
</linearGradient>
<linearGradient id="paint11_linear_2243_26613" x1="21.9991" y1="6.91489" x2="18.8567" y2="10.6454" gradientUnits="userSpaceOnUse">
<stop stop-color="#FFF5DE"/>
<stop offset="0.378992" stop-color="#FFF5DE"/>
<stop offset="0.480868" stop-color="#EAD2A9"/>
<stop offset="0.729174" stop-color="#D2A86B"/>
</linearGradient>
<linearGradient id="paint12_linear_2243_26613" x1="10.1517" y1="1.97752" x2="16.508" y2="14.6054" gradientUnits="userSpaceOnUse">
<stop stop-color="#FFF5DE"/>
<stop offset="1" stop-color="#CFA365"/>
</linearGradient>
<linearGradient id="paint13_linear_2243_26613" x1="10.0952" y1="3.02294" x2="15.5758" y2="13.1366" gradientUnits="userSpaceOnUse">
<stop stop-color="#D2A86C"/>
<stop offset="1" stop-color="#F8E6C0"/>
</linearGradient>
<linearGradient id="paint14_linear_2243_26613" x1="10.6884" y1="2.65568" x2="16.5928" y2="13.2778" gradientUnits="userSpaceOnUse">
<stop stop-color="#FFF6E7"/>
<stop offset="1" stop-color="#FFF8EC"/>
</linearGradient>
<radialGradient id="paint15_radial_2243_26613" cx="0" cy="0" r="1" gradientUnits="userSpaceOnUse" gradientTransform="translate(13.1465 8.20322) rotate(90) scale(6.3956 5.50881)">
<stop stop-color="#FFE4BA"/>
<stop offset="1" stop-color="#DEA44D"/>
</radialGradient>
<linearGradient id="paint16_linear_2243_26613" x1="13.1463" y1="1.55469" x2="13.1463" y2="14.8518" gradientUnits="userSpaceOnUse">
<stop stop-color="white"/>
<stop offset="1" stop-color="#F2EDED" stop-opacity="0"/>
</linearGradient>
<linearGradient id="paint17_linear_2243_26613" x1="6.34521" y1="2.75727" x2="12.9938" y2="14.2729" gradientUnits="userSpaceOnUse">
<stop stop-color="white"/>
<stop offset="1" stop-color="#F2EDED" stop-opacity="0"/>
</linearGradient>
<linearGradient id="paint18_linear_2243_26613" x1="19.4524" y1="2.75738" x2="12.8038" y2="14.273" gradientUnits="userSpaceOnUse">
<stop stop-color="white"/>
<stop offset="1" stop-color="#F2EDED" stop-opacity="0"/>
</linearGradient>
<linearGradient id="paint19_linear_2243_26613" x1="13.1465" y1="10.546" x2="13.1133" y2="14.1552" gradientUnits="userSpaceOnUse">
<stop stop-color="white" stop-opacity="0"/>
<stop offset="1" stop-color="#FFF1E3"/>
</linearGradient>
<linearGradient id="paint20_linear_2243_26613" x1="10.3726" y1="5.43094" x2="15.0549" y2="11.4286" gradientUnits="userSpaceOnUse">
<stop stop-color="#FFFAF0"/>
<stop offset="0.973958" stop-color="#FFDFAC"/>
</linearGradient>
<linearGradient id="paint21_linear_2243_26613" x1="11.6277" y1="4.24609" x2="12.8335" y2="8.23203" gradientUnits="userSpaceOnUse">
<stop offset="0.153262" stop-color="#F8B34C"/>
<stop offset="1" stop-color="#F1C673"/>
</linearGradient>
<linearGradient id="paint22_linear_2243_26613" x1="9.31722" y1="6.33" x2="12.9883" y2="8.29589" gradientUnits="userSpaceOnUse">
<stop offset="0.153262" stop-color="#F1C37D"/>
<stop offset="0.807292" stop-color="#FACB95"/>
</linearGradient>
<linearGradient id="paint23_linear_2243_26613" x1="11.102" y1="6.2441" x2="9.97762" y2="7.96376" gradientUnits="userSpaceOnUse">
<stop offset="0.153262" stop-color="#EDAD4F"/>
<stop offset="1" stop-color="#F1C673"/>
</linearGradient>
<linearGradient id="paint24_linear_2243_26613" x1="14.7067" y1="6.4089" x2="13.2516" y2="5.64829" gradientUnits="userSpaceOnUse">
<stop offset="0.153262" stop-color="#FFD07D"/>
<stop offset="1" stop-color="#EEB460"/>
</linearGradient>
<linearGradient id="paint25_linear_2243_26613" x1="15.0473" y1="6.44583" x2="15.6988" y2="7.96376" gradientUnits="userSpaceOnUse">
<stop offset="0.153262" stop-color="#EEB260"/>
<stop offset="1" stop-color="#FFD99D"/>
</linearGradient>
<linearGradient id="paint26_linear_2243_26613" x1="15.0778" y1="10.1157" x2="12.7944" y2="10.0113" gradientUnits="userSpaceOnUse">
<stop offset="0.153262" stop-color="#FCDEB3"/>
<stop offset="0.942708" stop-color="#EEBE61"/>
</linearGradient>
<linearGradient id="paint27_linear_2243_26613" x1="15.9015" y1="8.04166" x2="14.6734" y2="9.84783" gradientUnits="userSpaceOnUse">
<stop offset="0.109375" stop-color="#FFE2AD"/>
<stop offset="0.979167" stop-color="#EEBE60"/>
</linearGradient>
<linearGradient id="paint28_linear_2243_26613" x1="10.8998" y1="10.1157" x2="13.1196" y2="10.1791" gradientUnits="userSpaceOnUse">
<stop offset="0.153262" stop-color="#EEBE60"/>
<stop offset="0.897117" stop-color="#FFD597"/>
</linearGradient>
<linearGradient id="paint29_linear_2243_26613" x1="8.94506" y1="8.19051" x2="12.9915" y2="7.86524" gradientUnits="userSpaceOnUse">
<stop offset="0.153262" stop-color="#EBB260"/>
<stop offset="1" stop-color="#FFE8BB"/>
</linearGradient>
<linearGradient id="paint30_linear_2243_26613" x1="10.0438" y1="7.73133" x2="10.6721" y2="9.8809" gradientUnits="userSpaceOnUse">
<stop offset="0.153262" stop-color="#EAAC51"/>
<stop offset="1" stop-color="#F1C673"/>
</linearGradient>
<linearGradient id="paint31_linear_2243_26613" x1="11.66" y1="6.72445" x2="14.0284" y2="9.75829" gradientUnits="userSpaceOnUse">
<stop stop-color="white"/>
<stop offset="1" stop-color="white"/>
</linearGradient>
<linearGradient id="paint32_linear_2243_26613" x1="11.2009" y1="8.0631" x2="14.7357" y2="8.1771" gradientUnits="userSpaceOnUse">
<stop offset="0.147769" stop-color="#FEC87A"/>
<stop offset="0.978527" stop-color="#FCD7A1"/>
</linearGradient>
<clipPath id="clip0_2243_26613">
<rect width="9.25968" height="7.67231" fill="white" transform="translate(8.35718 4.22656)"/>
</clipPath>
</defs>
</svg>
