<svg width="22" height="20" viewBox="0 0 22 20" fill="none" xmlns="http://www.w3.org/2000/svg">
<path d="M0.250977 9.4646C0.250977 9.92163 0.602539 10.3171 1.16504 10.3171C1.4375 10.3171 1.68359 10.1677 1.90332 9.99194L10.6221 2.67065C10.8682 2.45972 11.1494 2.45972 11.3955 2.67065L20.1055 9.99194C20.3164 10.1677 20.5625 10.3171 20.835 10.3171C21.3535 10.3171 21.749 9.99194 21.749 9.48218C21.749 9.18335 21.6348 8.94604 21.4062 8.75269L18.9365 6.67847V3.02222C18.9365 2.62671 18.6816 2.38062 18.2861 2.38062H17.0732C16.6865 2.38062 16.4229 2.62671 16.4229 3.02222V4.5603L12.2568 1.06226C11.4922 0.420654 10.5254 0.420654 9.76074 1.06226L0.602539 8.75269C0.365234 8.94604 0.250977 9.20972 0.250977 9.4646ZM3.10742 17.366C3.10742 18.6316 3.89844 19.3962 5.20801 19.3962H16.8008C18.1016 19.3962 18.9014 18.6316 18.9014 17.366V10.6863L11.5449 4.52515C11.2021 4.22632 10.7891 4.23511 10.4551 4.52515L3.10742 10.6863V17.366ZM13.3115 17.7439H8.69727V12.1189C8.69727 11.7058 8.96973 11.4421 9.38281 11.4421H12.6348C13.0479 11.4421 13.3115 11.7058 13.3115 12.1189V17.7439Z" fill="#999999"/>
</svg>
