<svg width="24" height="25" viewBox="0 0 24 25" fill="none" xmlns="http://www.w3.org/2000/svg">
<path d="M11.9942 24.25C18.5713 24.25 24 18.8187 24 12.25C24 5.68133 18.5597 0.25 11.9826 0.25C5.41711 0.25 0 5.68133 0 12.25C0 18.8187 5.42871 24.25 11.9942 24.25ZM11.9826 14.1417C9.70904 14.1301 7.94587 12.2268 7.94587 9.70841C7.92267 7.34091 9.72064 5.36799 11.9826 5.36799C14.2446 5.36799 16.0193 7.34091 16.0193 9.70841C16.0193 12.2268 14.2562 14.1649 11.9826 14.1417ZM11.9826 22.2655C9.38424 22.2655 6.62349 21.1862 4.87192 19.3061C6.2059 17.31 8.85065 16.1494 11.9826 16.1494C15.0797 16.1494 17.7477 17.2868 19.0933 19.3061C17.3417 21.1862 14.581 22.2655 11.9826 22.2655Z" fill="#999999"/>
</svg>
